<svg width="24" height="24" viewBox="0 0 24 24" fill="none" xmlns="http://www.w3.org/2000/svg">
    <path d="M12 2.71436C9.43989 2.71436 7.35711 4.79714 7.35711 7.35721C7.35711 9.91728 9.43989 12.0001 12 12.0001C14.56 12.0001 16.6428 9.91728 16.6428 7.35721C16.6428 4.79714 14.56 2.71436 12 2.71436ZM12 10.1429C10.4641 10.1429 9.21425 8.89307 9.21425 7.35721C9.21425 5.82136 10.4641 4.5715 12 4.5715C13.5358 4.5715 14.7857 5.82136 14.7857 7.35721C14.7857 8.89307 13.5358 10.1429 12 10.1429ZM20.3571 20.3572V19.4286C20.3571 15.8453 17.4405 12.9286 13.8571 12.9286H10.1428C6.55854 12.9286 3.64282 15.8453 3.64282 19.4286V20.3572H5.49997V19.4286C5.49997 16.8686 7.58275 14.7858 10.1428 14.7858H13.8571C16.4172 14.7858 18.5 16.8686 18.5 19.4286V20.3572H20.3571Z" fill="#E5E5E5"/>
</svg>
